<svg xmlns="http://www.w3.org/2000/svg" width="195" height="195" style="shape-rendering:geometricPrecision;text-rendering:geometricPrecision;image-rendering:optimizeQuality;fill-rule:evenodd;clip-rule:evenodd"><path style="opacity:1" fill="#a68e82" d="M52.5-.5h8v33h-8v-33z"/><path style="opacity:1" fill="#3f3936" d="M92.5 23.5h15v9h10v8h-25v-17z"/><path style="opacity:1" fill="#fef1e9" d="M68.5 23.5h16v9h8v8h25v16h-9c2.448-.973 5.115-1.306 8-1v-7h-9v7h-15v-7h-17v7h-23v-7c-3.213.31-6.213-.023-9-1v-7h32v-8h-7v-9z"/><path style="opacity:1" fill="#837b78" d="M107.5 23.5h10v9h-10v-9z"/><path style="opacity:1" fill="#d2c3bc" d="M60.5 23.5h8v9h-8v-9z"/><path style="opacity:1" fill="#d1c2bb" d="M84.5 23.5h8v9h-8v-9z"/><path style="opacity:1" fill="#e68149" d="M52.5 32.5h23v8h-23v-8z"/><path style="opacity:1" fill="#d3c4bd" d="M43.5 47.5c2.787.977 5.787 1.31 9 1v7h-17v-8h8z"/><path style="opacity:1" fill="#e67e45" d="M83.5 48.5v7h-8v-7h8z"/><path style="opacity:1" fill="#d2bfb6" d="M83.5 48.5h9v7h-9v-7z"/><path style="opacity:1" fill="#d1c2bb" d="M108.5 56.5h-1v-8h9v7c-2.885-.306-5.552.027-8 1z"/><path style="opacity:1" fill="#a89992" d="M75.5 55.5h32v9h-32v-9z"/><path style="opacity:1" fill="#e77f44" d="M35.5 55.5h17v9c-3.213-.31-6.213.023-9 1h-8v-10z"/><path style="opacity:1" fill="#d1bfb6" d="M52.5 55.5h8v9h-8v-9z"/><path style="opacity:1" fill="#e58047" d="M60.5 55.5h8v9h-8v-9z"/><path style="opacity:1" fill="#d0c1ba" d="M68.5 55.5h7v9h-7v-9z"/><path style="opacity:1" fill="#a99991" d="M52.5 64.5h23v8h-32v-7c2.787-.977 5.787-1.31 9-1z"/><path style="opacity:1" fill="#89726a" d="M75.5 64.5h17v8h-17v-8z"/><path style="opacity:1" fill="#a78d81" d="M92.5 64.5h15v8h-7v8h-16v7h-1v-7h-31v-8h8v7h15v-7h17v-8z"/><path style="opacity:1" fill="#52dcf6" d="M181.5 72.5h-8v-8h8v8z"/><path style="opacity:1" fill="#887269" d="M60.5 72.5h15v7h-15v-7z"/><path style="opacity:1" fill="#f2fdff" d="M173.5 72.5h8v7c-.888 2.555-1.221 5.221-1 8h-7v-15z"/><path style="opacity:1" fill="#e7d7d0" d="M52.5 79.5v8h-9v-8h9z"/><path style="opacity:1" fill="#e67f46" d="M52.5 80.5h31v7h-31v-7z"/><path style="opacity:1" fill="#e4d4cc" d="M100.5 80.5v7h24v9h-32v-9h-8v-7h16z"/><path style="opacity:1" fill="#fef3ed" d="M100.5 79.5h17v8h-17v-8z"/><path style="opacity:1" fill="#55dbf6" d="M173.5 79.5v17h7v-9c-.221-2.779.112-5.445 1-8h7v18h-7v7h-8v-7h-10v-18h10z"/><path style="opacity:1" fill="#e48149" d="M43.5 87.5h9v10h-9v-10z"/><path style="opacity:1" fill="#bd632f" d="M52.5 87.5h16v9h-16v-9z"/><path style="opacity:1" fill="#e9d3c8" d="M68.5 87.5h15c-2.135 1.869-4.802 2.536-8 2v8h-7v-10z"/><path style="opacity:1" fill="#fef1e9" d="M83.5 87.5h9v9h15v15c-2.559-.302-4.893.032-7 1-.988 5.14-1.321 10.474-1 16h-16v8h-15v-8h-8v-24h8v-7h7v-8c3.198.536 5.865-.131 8-2z"/><path style="opacity:1" fill="#a3eefe" d="M173.5 87.5h7v9h-7v-9z"/><path style="opacity:1" fill="#d29e81" d="M52.5 96.5h16v1h-15c.302 2.559-.032 4.893-1 7v-8z"/><path style="opacity:1" fill="#ab8e80" d="M43.5 87.5v10h-7v7c-.968 2.107-1.302 4.441-1 7h8c3.213-.31 6.213.023 9 1h-16v7h-8v-23h7v-9h8z"/><path style="opacity:1" fill="#b85d29" d="M43.5 97.5h9v7h-16v-7h7z"/><path style="opacity:1" fill="#ead9d1" d="M68.5 97.5v7h-8v15h-8v-7c-2.787-.977-5.787-1.31-9-1v-7h9c.968-2.107 1.302-4.441 1-7h15z"/><path style="opacity:1" fill="#eb874f" d="M107.5 97.5h17v22h-7v-8h-10v-14z"/><path style="opacity:1" fill="#f69e6a" d="M107.5 97.5v-1h25v8h-8v-7h-17z"/><path style="opacity:1" fill="#e2d1c8" d="M36.5 104.5h7v7h-8c-.302-2.559.032-4.893 1-7z"/><path style="opacity:1" fill="#f2e5df" d="M124.5 104.5h8v8h-8v-8z"/><path style="opacity:.887" fill="#9e877c" d="M132.5 104.5h8v8h-8v-8z"/><path style="opacity:1" fill="#3b3633" d="M173.5 104.5h8v15h-8v-15z"/><path style="opacity:1" fill="#f3b795" d="M100.5 112.5c2.107-.968 4.441-1.302 7-1h10v8c-.968-2.107-1.302-4.441-1-7h-16z"/><path style="opacity:1" fill="#ead9d1" d="M28.5 111.5v8h-9v-8h9z"/><path style="opacity:1" fill="#fcefe7" d="M107.5 112.5h9c-.302 2.559.032 4.893 1 7v9h-10v-16z"/><path style="opacity:1" fill="#383431" d="M124.5 112.5h8v17h-8v-17z"/><path style="opacity:1" fill="#ececec" d="M173.5 111.5v8h-2c-.536-3.198.131-5.865 2-8z"/><path style="opacity:1" fill="#e67e44" d="M52.5 112.5v7h-16v-7h16zM100.5 112.5h7v16h-7v-16z"/><path style="opacity:.942" fill="#1c1b19" d="M132.5 112.5h8v7h41v10a840.27 840.27 0 0 0-41 .5c-.923 2.041-1.256 4.208-1 6.5h-15v-7h8v-17z"/><path style="opacity:1" fill="#e77e42" d="M19.5 119.5h16v9h-16v-9z"/><path style="opacity:1" fill="#b45825" d="M35.5 119.5h17v9h-17v-9z"/><path style="opacity:1" fill="#e58047" d="M52.5 119.5h8v9h8v25h-8v-17h-7c.306-2.885-.027-5.552-1-8v-9z"/><path style="opacity:1" fill="#a48c81" d="M117.5 119.5h7v17h-7v-17z"/><path style="opacity:1" fill="#e8ad8d" d="M100.5 128.5h17v8h-1v-7h-9c-2.559.302-4.893-.032-7-1z"/><path style="opacity:1" fill="#a68d80" d="M19.5 128.5h9v16h7v24h-7v-15h-9v-25z"/><path style="opacity:1" fill="#b55925" d="M28.5 128.5h7v16h-7v-16z"/><path style="opacity:1" fill="#fef2ea" d="M52.5 129.5v7h-16v-7h16z"/><path style="opacity:1" fill="#d4c5bd" d="M100.5 112.5v16c2.107.968 4.441 1.302 7 1v7h-23v8h-16v-8h15v-8h16c-.321-5.526.012-10.86 1-16z"/><path style="opacity:1" fill="#f79965" d="M107.5 129.5h9v7h-9v-7z"/><path style="opacity:1" fill="#a78e81" d="M35.5 128.5h17v1h-16v7h16v40h-9v-32h-8v-16z"/><path style="opacity:1" fill="#bd6635" d="M52.5 128.5c.973 2.448 1.306 5.115 1 8h7v8h-8v-16z"/><path style="opacity:1" fill="#fef1e9" d="M107.5 136.5v17h17v7h-49v-7h-7v-9h16v-8h23z"/><path style="opacity:1" fill="#f08f59" d="M107.5 136.5h17v8h-17v-8z"/><path style="opacity:1" fill="#a89085" d="M124.5 136.5h8v8h-8v-8z"/><path style="opacity:1" fill="#fef1e9" d="M132.5 136.5h7v8h-7v-8z"/><path style="opacity:1" fill="#e2d1c8" d="M35.5 144.5h8v16h-8v-16z"/><path style="opacity:1" fill="#d0bdb4" d="M107.5 144.5h10v9h-10v-9z"/><path style="opacity:1" fill="#bb612d" d="M117.5 144.5h22v9h-22v-9z"/><path style="opacity:1" fill="#ecddd5" d="M52.5 144.5h8v16h-8v-16z"/><path style="opacity:1" fill="#bb6330" d="M60.5 153.5h8v7h-8v-7z"/><path style="opacity:1" fill="#e3d2ca" d="M68.5 153.5h7v7h49v-7h15v8h-7v7h-8v8h-32v9h-9v-9h-23v-16h8v-7z"/><path style="opacity:1" fill="#b47654" d="M35.5 160.5h8v1h-7c.302 2.559-.032 4.893-1 7v-8z"/><path style="opacity:1" fill="#b65825" d="M43.5 161.5v15h-8v-8c.968-2.107 1.302-4.441 1-7h7z"/><path style="opacity:1" fill="#b65d2b" d="M52.5 160.5h8v16h-8v-16z"/><path style="opacity:1" fill="#a68d81" d="M52.5 176.5h31v9h-8v8h-15v-8h-8v-9z"/><path style="opacity:1" fill="#a58b7e" d="M100.5 176.5v9h-8v-9h8z"/><path style="opacity:1" fill="#bd622d" d="M100.5 176.5h17v9h-17v-9z"/><path style="opacity:1" fill="#e78045" d="M117.5 176.5h7v9h-7v-9z"/><path style="opacity:1" fill="#b95923" d="M43.5 176.5h9v9h-9v-9z"/><path style="opacity:1" fill="#bd622e" d="M83.5 185.5h17v8h-25v-8h8z"/><path style="opacity:1" fill="#a78e82" d="M100.5 185.5h7v8h-7v-8z"/></svg>